<svg id="Capa_1" enable-background="new 0 0 512 512" height="512" viewBox="0 0 512 512" width="512"
    xmlns="http://www.w3.org/2000/svg">
    <g>
        <g>
            <path d="m130 10c-33.14 0-60 26.86-60 60 0 11.13 3.03 21.56 8.32 30.49v.01l49.1 29.45c.86.03 1.72.05 2.58.05 33.14 0 60-26.86 60-60s-26.86-60-60-60z" fill="#ffda8f"/>
            <path d="m360.94 204.23h-137.88l-28.73 59.41-87.73 57.58-96.6 180.78h492z" fill="#d8ec84"/>
            <g fill="#eefaff">
                <path d="m472 256h-2.56c-6.18-17.48-22.85-30-42.44-30-18.634 0-35.687 11.427-42.44 30h-2.56c-16.57 0-30 13.43-30 30s13.43 30 30 30h90c16.57 0 30-13.43 30-30s-13.43-30-30-30z"/>
                <path d="m442 40c16.57 0 30 13.43 30 30s-13.43 30-30 30h-90c-16.57 0-30-13.43-30-30s13.43-30 30-30h2.56c6.18-17.48 22.85-30 42.44-30s36.26 12.52 42.44 30z"/>
                <path d="m346.02 173.36 14.92 30.87c-19.5 13.72-43.28 21.77-68.94 21.77s-49.44-8.05-68.94-21.77l14.92-30.87c21.84-45.18 86.2-45.18 108.04 0z"/>
                <path d="m227.57 291.59 15.83 29.63c-20.06 15.75-43.44 24.78-68.4 24.78s-48.34-9.03-68.4-24.78l15.83-29.63c15.02-27.31 45.99-36.63 71.9-27.95 13.42 4.49 25.47 13.81 33.24 27.95z"/>
                <path d="m130 130h-2.56c-.01-.02-.01-.03-.02-.05-6.19-17.45-22.85-29.95-42.42-29.95-19.4 0-36.206 12.349-42.44 30h-2.56c-16.57 0-30 13.43-30 30s13.43 30 30 30h90c16.57 0 30-13.43 30-30s-13.43-30-30-30z"/>
            </g>
        </g>
        <g>
            <path d="m40 200h90c22.056 0 40-17.944 40-40 0-10.238-3.87-19.586-10.219-26.669 23.744-11.211 40.219-35.379 40.219-63.331 0-38.598-31.402-70-70-70s-70 31.402-70 70c0 8.247 1.46 16.385 4.258 24.043-12.256 4.964-22.363 14.216-28.376 26.167-20.127 2.069-35.882 19.125-35.882 39.79 0 22.056 17.944 40 40 40zm90-180c27.57 0 50 22.43 50 50 0 26.254-20.343 47.83-46.092 49.833-9.324-18.101-28.153-29.833-48.908-29.833-.271 0-.542.011-.812.015-2.742-6.271-4.188-13.084-4.188-20.015 0-27.57 22.43-50 50-50zm-90 120h2.56c4.239 0 8.018-2.673 9.429-6.67 4.994-14.138 18.253-23.33 33.011-23.33 14.793 0 28.053 9.361 32.995 23.293 1.413 3.962 5.198 6.707 9.445 6.707h2.56c11.028 0 20 8.972 20 20s-8.972 20-20 20h-90c-11.028 0-20-8.972-20-20s8.972-20 20-20z"/>
            <path d="m397 0c-20.904 0-39.851 11.893-49.109 30.209-20.134 2.064-35.891 19.121-35.891 39.791 0 22.056 17.944 40 40 40h90c22.056 0 40-17.944 40-40 0-20.67-15.757-37.728-35.891-39.791-9.258-18.316-28.205-30.209-49.109-30.209zm65 70c0 11.028-8.972 20-20 20h-90c-11.028 0-20-8.972-20-20s8.972-20 20-20h2.56c4.238 0 8.016-2.671 9.428-6.667 4.934-13.956 18.201-23.333 33.012-23.333s28.078 9.377 33.012 23.333c1.413 3.996 5.19 6.667 9.428 6.667h2.56c11.028 0 20 8.972 20 20z"/>
            <circle cx="181" cy="502" r="10"/>
            <path d="m10 512h126c5.523 0 10-4.478 10-10s-4.477-10-10-10h-109.318l83.368-156.022c20.047 13.123 42.283 20.022 64.95 20.022s44.904-6.899 64.95-20.022l83.368 156.022h-97.318c-5.523 0-10 4.478-10 10s4.477 10 10 10h276c3.419 0 6.602-1.747 8.437-4.633 1.835-2.885 2.069-6.508.62-9.604l-80.358-171.763h41.301c22.056 0 40-17.944 40-40 0-20.67-15.757-37.728-35.891-39.791-9.258-18.316-28.205-30.209-49.109-30.209-15.849 0-30.423 6.656-40.624 17.859l-31.353-64.851c-11.788-24.385-35.937-39.533-63.023-39.533s-51.236 15.148-63.023 39.534l-40.065 82.865c-29.729-5.962-60.351 7.819-75.243 34.896-.02.036-110.929 207.6-112.488 210.517-1.656 3.1-1.564 6.841.243 9.854 1.806 3.014 5.062 4.859 8.576 4.859zm476.281-20h-140.286c-7.843-14.677-109.642-205.191-109.661-205.227-6.667-12.132-16.569-21.847-28.469-28.154l19.307-39.933c19.651 11.347 41.834 17.314 64.828 17.314s45.176-5.967 64.826-17.312l13.978 28.912c-16.623 4.855-28.804 20.23-28.804 38.4 0 22.056 17.944 40 40 40h26.618zm-59.281-256c14.811 0 28.078 9.377 33.012 23.333 1.413 3.996 5.19 6.667 9.428 6.667h2.56c11.028 0 20 8.972 20 20s-8.972 20-20 20h-90c-11.028 0-20-8.972-20-20s8.972-20 20-20h2.56c5.224 0 7.917-3.045 9.88-7.864.01-.024.021-.05.03-.075 5.338-13.402 18.107-22.061 32.53-22.061zm-180.016-58.287c8.547-17.682 25.376-28.238 45.017-28.238s36.47 10.557 45.017 28.237l11.086 22.93c-16.927 10.072-36.155 15.358-56.104 15.358s-39.178-5.286-56.103-15.358zm-115.765 118.647c13.234-24.005 40.16-29.862 59.938-23.237 11.89 3.979 21.44 12.012 27.622 23.234l11.705 21.905c-17.178 11.624-36.204 17.738-55.484 17.738-19.279 0-38.306-6.114-55.484-17.738z"/>
        </g>
    </g>
</svg>